<svg width="81" height="46" viewBox="0 0 81 46" fill="none" xmlns="http://www.w3.org/2000/svg">
<path d="M5.58847 15.3944C6.84974 16.2768 8.13353 16.7179 9.43985 16.7179C10.7462 16.7179 11.8047 16.5415 12.6155 16.1885V21.6812H16.9399C20.6336 21.6812 23.2012 21.0194 24.6427 19.6959C26.1292 18.3723 26.8724 15.9018 26.8724 12.2841C26.8724 5.13705 23.6967 1.56352 17.3453 1.56352C13.2462 1.56352 10.1155 2.40175 7.95335 4.07822C7.27767 4.56352 6.73713 5.15911 6.33172 5.86499C5.97136 6.57087 5.79118 7.1444 5.79118 7.58558C5.79118 7.98264 5.97136 8.18117 6.33172 8.18117C6.69208 8.18117 6.93983 8.0047 7.07497 7.65175C7.61551 6.28411 8.67408 5.60028 10.2507 5.60028C11.2417 5.60028 12.075 5.95322 12.7507 6.65911C13.4714 7.36499 13.8318 8.33558 13.8318 9.57087C13.8318 10.8062 13.3813 11.7988 12.4804 12.5488C11.5795 13.2988 10.4984 13.6738 9.23714 13.6738C7.97587 13.6738 6.84974 13.1885 5.85874 12.2179C4.91279 11.2473 4.43981 10.012 4.43981 8.51205C4.43981 6.12969 5.65604 4.16646 8.08849 2.62234C10.566 1.03411 13.7417 0.23999 17.6156 0.23999C22.8408 0.23999 26.94 1.21058 29.913 3.15175C32.931 5.04881 34.44 7.8944 34.44 11.6885C34.44 14.4679 33.4941 16.7841 31.6022 18.637C29.7553 20.4459 27.1652 21.5709 23.8318 22.012V22.3429C27.976 22.3429 30.7013 23.3135 32.0076 25.2547C33.3589 27.1959 34.0346 30.5047 34.0346 35.1812V38.2253C34.0346 39.8135 34.1472 40.9165 34.3724 41.5341C34.5977 42.1076 34.9806 42.3944 35.5211 42.3944C36.1067 42.3944 36.6923 41.9532 37.2779 41.0709C37.9085 40.1885 38.4265 38.865 38.8319 37.1003L40.0482 37.365C38.9671 42.615 36.377 45.24 32.2778 45.24C30.6562 45.24 29.3499 44.5782 28.3589 43.2547C27.3679 41.9312 26.8724 39.9679 26.8724 37.365V32.9973C26.8724 29.2473 26.1066 26.6003 24.5751 25.0562C23.0886 23.512 20.7237 22.74 17.4804 22.74H12.6155V43.5194H18.2237V44.5782H0.656006V43.5194H5.58847V15.3944Z" fill="black"/>
<path d="M60.8586 43.5194C65.0478 43.5194 68.1334 42.615 70.1154 40.8062C72.0974 38.9973 73.0884 36.1297 73.0884 32.2032C73.0884 28.2768 71.9623 25.5635 69.71 24.0635C67.4577 22.5635 63.9667 21.8135 59.2369 21.8135H57.6829V43.5194H60.8586ZM71.4668 9.70323C71.4668 4.32087 68.201 1.62969 61.6694 1.62969C58.4712 1.62969 55.791 2.44587 53.6288 4.07822C52.9531 4.56352 52.4126 5.15911 52.0072 5.86499C51.6468 6.57087 51.4666 7.1444 51.4666 7.58558C51.4666 7.98264 51.6468 8.18117 52.0072 8.18117C52.3675 8.18117 52.6153 8.0047 52.7504 7.65175C53.291 6.28411 54.3495 5.60028 55.9261 5.60028C56.9171 5.60028 57.7505 5.95322 58.4261 6.65911C59.1469 7.36499 59.5072 8.33558 59.5072 9.57087C59.5072 10.8062 59.0568 11.7988 58.1559 12.5488C57.255 13.2988 56.1739 13.6738 54.9126 13.6738C53.6513 13.6738 52.5252 13.1885 51.5342 12.2179C50.5882 11.2473 50.1153 10.012 50.1153 8.51205C50.1153 6.12969 51.2864 4.16646 53.6288 2.62234C55.9712 1.03411 59.3496 0.23999 63.764 0.23999C68.1785 0.23999 71.8271 1.01205 74.71 2.55616C77.5929 4.10028 79.0344 6.41646 79.0344 9.50469C79.0344 12.5488 77.9758 15.0415 75.8587 16.9826C73.7415 18.9238 70.9487 20.2253 67.4802 20.887V21.2841C71.3992 21.3723 74.5749 22.2768 77.0073 23.9973C79.4398 25.7179 80.656 28.2768 80.656 31.6738C80.656 40.2768 74.3947 44.5782 61.8721 44.5782H45.7233V43.5194H50.6558V19.1003C53.3135 19.8503 56.4667 20.2253 60.1153 20.2253C63.809 20.2253 66.6244 19.2547 68.5613 17.3135C70.4983 15.3282 71.4668 12.7915 71.4668 9.70323Z" fill="black"/>
</svg>
